<?xml version="1.0" standalone="no"?>
<!DOCTYPE svg PUBLIC "-//W3C//DTD SVG 20010904//EN"
 "http://www.w3.org/TR/2001/REC-SVG-20010904/DTD/svg10.dtd">
<svg version="1.0" xmlns="http://www.w3.org/2000/svg"
 width="512.000000pt" height="512.000000pt" viewBox="0 0 512.000000 512.000000"
 preserveAspectRatio="xMidYMid meet">

<g transform="translate(0.000000,512.000000) scale(0.100000,-0.100000)"
fill="white" stroke="none">
<path d="M2405 4683 c-346 -55 -648 -276 -799 -586 -92 -186 -116 -328 -116
-677 l0 -220 -31 0 c-52 0 -171 -31 -236 -61 -132 -62 -233 -161 -298 -290
-72 -141 -69 -96 -73 -984 -2 -566 0 -823 8 -880 31 -216 157 -393 345 -485
150 -74 69 -70 1355 -70 1286 0 1205 -4 1355 70 188 92 314 269 345 485 8 57
10 314 8 880 -4 888 -1 843 -73 984 -87 173 -240 291 -432 335 -40 9 -86 16
-102 16 l-31 0 0 220 c0 122 -5 264 -11 317 -49 441 -354 801 -779 919 -80 22
-120 26 -250 29 -85 2 -168 1 -185 -2z m320 -439 c204 -52 378 -220 446 -429
21 -64 23 -93 27 -342 l4 -273 -641 0 -641 0 0 246 c0 190 4 261 16 317 81
359 430 572 789 481z m993 -1493 c20 -11 49 -32 64 -48 60 -63 58 -29 58 -892
l0 -789 -28 -53 c-20 -39 -41 -62 -77 -84 l-48 -30 -1127 0 -1127 0 -48 30
c-36 22 -57 45 -77 84 l-28 53 0 792 c0 749 1 793 19 831 20 44 59 84 106 108
27 15 150 16 1153 17 1086 0 1124 -1 1160 -19z"/>
<path d="M2510 2341 c-74 -24 -119 -63 -145 -123 -13 -31 -15 -96 -15 -408 0
-345 1 -373 19 -408 83 -162 299 -162 382 0 18 35 19 63 19 408 0 398 -2 413
-53 468 -47 51 -149 82 -207 63z"/>
</g>
</svg>
