<?xml version="1.0" standalone="no"?>
<!DOCTYPE svg PUBLIC "-//W3C//DTD SVG 20010904//EN"
 "http://www.w3.org/TR/2001/REC-SVG-20010904/DTD/svg10.dtd">
<svg version="1.0" xmlns="http://www.w3.org/2000/svg"
 width="512.000000pt" height="512.000000pt" viewBox="0 0 512.000000 512.000000"
 preserveAspectRatio="xMidYMid meet">

<g transform="translate(0.000000,512.000000) scale(0.100000,-0.100000)"
fill="gray" stroke="none">
<path d="M2353 4419 c-640 -75 -1204 -476 -1478 -1052 -443 -932 -57 -2037
870 -2488 598 -290 1305 -241 1856 129 572 386 892 1066 818 1740 -95 875
-758 1554 -1627 1666 -131 17 -319 19 -439 5z m430 -144 c366 -48 694 -204
963 -458 334 -316 520 -724 541 -1187 19 -432 -129 -857 -416 -1196 -64 -75
-76 -85 -82 -68 -4 10 -19 60 -34 109 -78 265 -266 516 -503 672 l-91 60 45
44 c92 90 177 242 216 388 31 111 30 334 0 446 -72 261 -236 460 -475 574
-155 74 -206 85 -382 86 -180 0 -243 -14 -392 -86 -486 -234 -652 -838 -354
-1290 27 -41 70 -94 95 -118 l45 -44 -88 -58 c-240 -158 -428 -408 -506 -674
-15 -49 -30 -99 -34 -109 -6 -17 -18 -7 -82 68 -197 233 -322 489 -386 795
-23 110 -27 150 -27 321 -1 210 7 273 54 456 53 199 140 386 262 559 83 118
288 323 408 407 356 251 795 359 1223 303z m-8 -695 c311 -99 512 -356 532
-680 22 -374 -239 -704 -615 -776 -393 -75 -784 190 -866 588 -83 401 172 790
579 884 90 20 281 12 370 -16z m-604 -1517 c131 -65 228 -87 389 -87 162 0
258 21 394 89 l88 43 47 -25 c92 -52 168 -108 248 -186 167 -163 273 -360 317
-594 l14 -73 -74 -55 c-207 -156 -447 -261 -724 -316 -166 -34 -454 -34 -620
0 -281 56 -502 153 -731 322 l-66 49 8 50 c23 145 94 325 180 451 50 75 174
206 240 255 59 43 192 124 200 121 3 -1 43 -21 90 -44z"/>
</g>
</svg>
